<?xml version="1.0" encoding="UTF-8" standalone="no"?>
<!DOCTYPE svg PUBLIC "-//W3C//DTD SVG 1.1//EN" "http://www.w3.org/Graphics/SVG/1.1/DTD/svg11.dtd">
<svg width="100%" height="100%" viewBox="0 0 938 721" version="1.1" xmlns="http://www.w3.org/2000/svg" xmlns:xlink="http://www.w3.org/1999/xlink" xml:space="preserve" xmlns:serif="http://www.serif.com/" style="fill-rule:evenodd;clip-rule:evenodd;stroke-linejoin:round;stroke-miterlimit:2;">
    <g transform="matrix(2.87927,0,0,2.87927,-2783.55,-2380.82)">
        <g transform="matrix(0.678131,-0.391519,0.393945,0.682332,64.3806,993.349)">
            <path d="M1270.73,485.174L1270.73,708.431L1054.27,695.684L1048.83,485.17L1270.73,485.174Z" style="fill:white;"/>
        </g>
        <g transform="matrix(0.709738,-0.330788,0.332838,0.714135,112.32,907.197)">
            <path d="M1270.73,485.174L1270.73,708.431L1054.27,695.684L1048.83,485.17L1270.73,485.174Z" style="fill:white;"/>
        </g>
        <g transform="matrix(0.756466,0.20226,-0.203513,0.761152,430.029,281.14)">
            <path d="M1270.73,485.174L1270.73,708.431L1054.27,695.684L1048.83,485.17L1270.73,485.174Z" style="fill:rgb(86,86,86);"/>
        </g>
        <g transform="matrix(0.709738,-0.330788,0.332838,0.714135,112.32,907.197)">
            <path d="M1270.73,485.174L1270.73,708.431L1054.27,695.684L1048.83,485.17L1270.73,485.174Z" style="fill:rgb(130,130,130);fill-opacity:0.81;"/>
        </g>
        <g transform="matrix(0.678131,-0.391519,0.393945,0.682332,64.3806,993.349)">
            <path d="M1270.73,485.174L1270.73,708.431L1054.27,695.684L1048.83,485.17L1270.73,485.174Z" style="fill:rgb(212,212,212);fill-opacity:0.65;"/>
        </g>
    </g>
</svg>
