<svg width="1968" height="517" viewBox="0 0 1968 517" fill="none" xmlns="http://www.w3.org/2000/svg">
<mask id="mask0_323_3" style="mask-type:luminance" maskUnits="userSpaceOnUse" x="0" y="0" width="1968" height="517">
<path d="M1967.92 0H0V516.667H1967.92V0Z" fill="white"/>
</mask>
<g mask="url(#mask0_323_3)">
<path d="M580.48 262.199H389.527V314.893H580.48V262.199Z" fill="white"/>
<path d="M775.3 432.849C748.712 432.849 726.474 427.531 708.588 417.379C690.218 407.71 675.715 394.175 664.596 377.255C653.477 360.335 645.742 341.481 640.425 321.177C635.59 300.39 633.173 279.603 633.173 258.332C633.173 238.512 635.59 218.208 640.908 197.42C645.742 177.117 653.961 157.78 665.079 140.86C676.198 123.456 691.184 109.437 709.071 99.2851C726.958 88.6497 749.195 83.332 775.3 83.332C796.571 83.332 814.941 86.716 830.894 93.9674C846.364 101.219 859.9 110.404 870.052 122.006C880.687 133.125 888.422 145.21 893.74 157.78L838.146 183.401C832.345 175.183 826.544 167.931 821.226 162.13C814.941 155.846 808.657 151.495 801.405 148.111C793.671 144.727 784.969 143.277 775.3 143.277C760.798 143.277 748.229 146.661 738.56 153.429C728.892 160.68 720.673 169.865 714.872 181.467C709.071 192.586 704.72 205.155 702.303 218.691C699.403 232.227 697.952 245.28 697.952 258.332C697.952 271.868 699.403 285.404 702.787 298.94C705.687 312.476 710.038 325.045 716.323 336.163C722.607 347.282 730.342 355.984 740.494 362.752C750.162 369.52 761.765 372.904 775.3 372.904C789.32 372.904 801.889 368.553 811.557 360.818C821.709 352.6 830.411 342.448 838.146 329.396L895.19 351.15C887.939 366.619 879.237 380.639 868.118 392.724C856.999 405.293 843.947 414.962 828.477 422.213C813.491 428.981 795.604 432.849 775.3 432.849Z" fill="white"/>
<path d="M1080.63 433.332C1054.04 433.332 1030.84 428.014 1011.99 417.862C993.132 407.71 978.146 394.175 966.544 377.255C954.942 360.335 946.723 341.481 940.922 320.694C935.605 299.907 933.188 279.119 933.188 258.332C933.188 237.545 935.605 216.757 940.922 195.97C946.723 175.183 954.942 156.329 966.544 139.409C978.146 122.489 993.132 108.954 1011.99 98.8016C1030.84 88.6497 1054.04 83.332 1080.63 83.332C1108.19 83.332 1130.91 88.6497 1149.76 98.8016C1168.62 108.954 1183.6 122.489 1195.2 139.409C1206.81 156.329 1215.02 175.183 1220.34 195.97C1225.66 216.757 1228.08 237.545 1228.08 258.332C1228.08 279.119 1225.66 299.907 1220.34 320.694C1215.02 341.481 1206.81 360.335 1195.2 377.255C1183.6 394.175 1168.62 407.71 1149.76 417.862C1130.91 428.014 1108.19 433.332 1080.63 433.332ZM1080.63 372.904C1096.1 372.904 1108.67 369.52 1119.31 362.268C1129.94 355.5 1138.16 346.315 1144.93 334.713C1151.21 323.111 1156.05 311.025 1158.95 297.489C1161.85 283.954 1163.3 270.901 1163.3 258.332C1163.3 244.796 1161.85 231.26 1158.95 217.724C1156.05 204.188 1151.7 191.619 1145.41 180.501C1139.13 168.898 1130.43 160.197 1119.79 153.429C1109.15 146.661 1096.1 143.277 1080.63 143.277C1065.16 143.277 1052.11 146.661 1041.47 153.912C1031.32 160.68 1022.62 170.349 1016.34 181.467C1010.05 193.07 1005.22 205.639 1002.32 219.175C999.417 232.71 997.967 245.763 997.967 258.332C997.967 271.868 999.417 285.404 1002.32 298.94C1005.22 312.476 1010.05 324.561 1016.34 335.68C1023.1 347.282 1031.32 355.984 1041.96 362.752C1052.59 369.52 1065.65 372.904 1080.63 372.904Z" fill="white"/>
<path d="M1293.68 427.531V89.1328H1447.89C1475.93 89.1328 1498.17 93.9671 1514.6 103.636C1531.04 113.787 1542.64 126.357 1549.41 142.31C1556.66 158.263 1560.05 175.666 1560.05 193.553C1560.05 206.605 1557.63 219.658 1552.79 232.71C1547.96 245.763 1540.23 257.365 1530.56 268C1520.4 278.152 1507.84 285.887 1492.37 290.721L1559.08 427.531H1488.98L1424.69 299.423H1356.52V427.531H1293.68ZM1356.52 240.445H1448.86C1460.46 240.445 1469.65 238.028 1476.41 233.677C1483.18 229.326 1488.02 223.525 1490.92 216.757C1493.82 209.506 1495.27 202.254 1495.27 194.036C1495.27 186.785 1494.3 179.533 1491.4 172.765C1488.5 165.514 1484.15 159.713 1476.9 154.879C1470.13 150.528 1460.94 148.111 1448.86 148.111H1356.52V240.445Z" fill="white"/>
<path d="M1627.05 427.531V89.1328H1770.14C1798.18 89.1328 1820.9 94.4505 1837.82 104.602C1854.74 115.238 1866.83 128.29 1874.08 144.727C1880.85 160.68 1884.71 177.6 1884.71 195.486C1884.71 207.572 1882.78 220.141 1878.43 232.227C1874.08 244.796 1867.31 256.398 1858.13 266.55C1848.94 277.185 1837.34 285.404 1822.84 291.688C1808.33 297.973 1790.45 301.357 1770.14 301.357H1689.89V427.531H1627.05ZM1689.89 242.379H1773.04C1784.64 242.379 1793.83 239.962 1800.6 235.127C1807.85 230.776 1812.68 224.492 1815.58 217.241C1818.97 209.989 1820.42 202.738 1820.42 195.486C1820.42 188.718 1818.97 181.467 1816.07 174.216C1813.65 166.964 1808.82 160.68 1801.56 155.362C1794.8 150.528 1785.13 148.111 1773.04 148.111H1689.89V242.379Z" fill="white"/>
<path fill-rule="evenodd" clip-rule="evenodd" d="M83.8104 433.333V379.833L264.847 143.889L142.539 136.833V170.639L94.5104 83.333H354.511V136.833L173.61 370.209L306.344 379.833V343.459L354.511 433.333H83.8104ZM152.927 370.209L333.827 136.833L285.797 143.889L104.76 379.833L152.927 370.209Z" fill="white"/>
<path d="M1884.76 433.333C1878.26 433.333 1872.39 432.208 1866.89 429.958C1861.39 427.583 1856.64 424.458 1852.51 420.333C1848.39 416.208 1845.14 411.458 1842.89 405.958C1840.64 400.458 1839.51 394.458 1839.51 388.083C1839.51 381.708 1840.64 375.708 1842.89 370.208C1845.14 364.708 1848.39 359.958 1852.51 355.833C1856.64 351.708 1861.39 348.583 1866.89 346.333C1872.39 343.958 1878.26 342.833 1884.76 342.833C1891.14 342.833 1897.14 343.958 1902.51 346.333C1908.01 348.583 1912.89 351.708 1916.89 355.833C1921.01 359.958 1924.26 364.708 1926.51 370.208C1928.76 375.708 1930.01 381.708 1930.01 388.083C1930.01 394.458 1928.76 400.458 1926.51 405.958C1924.26 411.458 1921.01 416.208 1916.89 420.333C1912.89 424.458 1908.01 427.583 1902.51 429.958C1897.14 432.208 1891.14 433.333 1884.76 433.333ZM1884.64 423.208C1889.64 423.208 1894.26 422.333 1898.51 420.583C1902.64 418.708 1906.26 416.333 1909.39 413.083C1912.51 409.958 1914.89 406.208 1916.51 401.958C1918.26 397.708 1919.01 393.083 1919.01 388.083C1919.01 383.083 1918.26 378.458 1916.51 374.208C1914.76 369.958 1912.39 366.208 1909.39 363.083C1906.26 359.833 1902.64 357.458 1898.51 355.583C1894.26 353.833 1889.64 352.958 1884.64 352.958C1878.01 352.958 1872.14 354.583 1867.01 357.583C1861.76 360.708 1857.76 364.833 1854.76 370.208C1851.76 375.458 1850.39 381.458 1850.39 388.083C1850.39 394.708 1851.76 400.708 1854.76 405.958C1857.76 411.333 1861.76 415.458 1867.01 418.583C1872.14 421.583 1878.01 423.208 1884.64 423.208ZM1865.89 414.458V361.708H1888.51C1892.89 361.708 1896.39 362.458 1898.89 364.083C1901.26 365.708 1903.01 367.708 1904.01 370.208C1905.01 372.708 1905.51 375.333 1905.51 377.958C1905.51 381.083 1904.76 384.083 1903.01 386.958C1901.26 389.833 1898.39 391.833 1894.51 393.083L1906.64 414.458H1893.89L1882.89 394.458H1877.89V414.458H1865.89ZM1877.89 383.583H1887.89C1889.89 383.583 1891.26 382.958 1892.14 381.833C1893.01 380.583 1893.39 379.333 1893.39 378.083C1893.39 377.333 1893.26 376.458 1892.89 375.708C1892.64 374.833 1892.01 374.083 1891.26 373.583C1890.39 372.958 1889.39 372.708 1887.89 372.708H1877.89V383.583Z" fill="white"/>
</g>
</svg>
