<?xml version="1.0" encoding="UTF-8" standalone="no"?>
<!DOCTYPE svg PUBLIC "-//W3C//DTD SVG 1.1//EN" "http://www.w3.org/Graphics/SVG/1.1/DTD/svg11.dtd">
<svg width="100%" height="100%" viewBox="0 0 438 517" version="1.1" xmlns="http://www.w3.org/2000/svg" xmlns:xlink="http://www.w3.org/1999/xlink" xml:space="preserve" xmlns:serif="http://www.serif.com/" style="fill-rule:evenodd;clip-rule:evenodd;stroke-linejoin:round;stroke-miterlimit:2;">
    <g transform="matrix(1,0,0,1,-3494.327234,-1661.574226)">
        <g transform="matrix(1,0,0,1,5,0)">
            <g id="z-corp_z_no-R-" serif:id="z-corp_z_no(R)" transform="matrix(0.175167,0,0,0.31,3489.327234,1661.574226)">
                <rect x="0" y="0" width="2500" height="1666.667" style="fill:none;"/>
                <clipPath id="_clip1">
                    <rect x="0" y="0" width="2500" height="1666.667"/>
                </clipPath>
                <g clip-path="url(#_clip1)">
                    <g transform="matrix(5.708849,0,0,3.225806,-6173.555957,-1067.030852)">
                        <g transform="matrix(0.740526,0,0,1.027986,915.96621,-2404.281945)">
                            <rect x="349.31" y="2660.602" width="352.638" height="81.065" style="fill:white;fill-opacity:0;"/>
                        </g>
                        <g transform="matrix(0.740526,0,0,1.027986,915.96621,-1970.948612)">
                            <rect x="349.31" y="2660.602" width="352.638" height="81.065" style="fill:white;fill-opacity:0;"/>
                        </g>
                        <g transform="matrix(0,1,-1.027986,0,4254.17239,64.80281)">
                            <rect x="349.31" y="2660.602" width="352.638" height="81.065" style="fill:white;fill-opacity:0;"/>
                        </g>
                        <g transform="matrix(0,-1,1.027986,0,-1653.660291,1116.061332)">
                            <rect x="349.31" y="2660.602" width="352.638" height="81.065" style="fill:white;fill-opacity:0;"/>
                        </g>
                    </g>
                    <g transform="matrix(7.136061,0,0,4.032258,-4317.464581,-1396.796798)">
                        <path d="M672.069,693.072L672.069,650.272L816.898,461.517L719.052,455.872L719.052,482.917L680.629,413.072L888.629,413.072L888.629,455.872L743.909,642.573L850.096,650.272L850.096,621.173L888.629,693.072L672.069,693.072ZM727.362,642.573L872.082,455.872L833.658,461.517L688.829,650.272L727.362,642.573Z"/>
                    </g>
                </g>
            </g>
        </g>
    </g>
</svg>
