<svg width="438" height="517" viewBox="0 0 438 517" fill="none" xmlns="http://www.w3.org/2000/svg">
<path fill-rule="evenodd" clip-rule="evenodd" d="M83.8107 433.333V379.833L264.847 143.889L142.54 136.833V170.639L94.5108 83.333H354.511V136.833L173.611 370.209L306.345 379.833V343.459L354.511 433.333H83.8107ZM152.927 370.209L333.827 136.833L285.797 143.889L104.761 379.833L152.927 370.209Z" fill="white"/>
<path d="M407.577 433.333C403.244 433.333 399.327 432.583 395.66 431.083C391.994 429.5 388.827 427.417 386.077 424.667C383.327 421.917 381.16 418.75 379.66 415.083C378.16 411.417 377.41 407.417 377.41 403.167C377.41 398.917 378.16 394.917 379.66 391.25C381.16 387.583 383.327 384.417 386.077 381.667C388.827 378.917 391.994 376.833 395.66 375.333C399.327 373.75 403.244 373 407.577 373C411.827 373 415.827 373.75 419.41 375.333C423.077 376.833 426.327 378.917 428.994 381.667C431.744 384.417 433.911 387.583 435.411 391.25C436.911 394.917 437.744 398.917 437.744 403.167C437.744 407.417 436.911 411.417 435.411 415.083C433.911 418.75 431.744 421.917 428.994 424.667C426.327 427.417 423.077 429.5 419.41 431.083C415.827 432.583 411.827 433.333 407.577 433.333ZM407.494 426.583C410.827 426.583 413.91 426 416.744 424.833C419.494 423.583 421.91 422 423.994 419.833C426.077 417.75 427.66 415.25 428.744 412.417C429.911 409.583 430.411 406.5 430.411 403.167C430.411 399.833 429.911 396.75 428.744 393.917C427.577 391.083 425.994 388.583 423.994 386.5C421.91 384.333 419.494 382.75 416.744 381.5C413.91 380.333 410.827 379.75 407.494 379.75C403.077 379.75 399.16 380.833 395.744 382.833C392.244 384.917 389.577 387.667 387.577 391.25C385.577 394.75 384.66 398.75 384.66 403.167C384.66 407.583 385.577 411.583 387.577 415.083C389.577 418.667 392.244 421.417 395.744 423.5C399.16 425.5 403.077 426.583 407.494 426.583ZM394.994 420.75V385.583H410.077C412.994 385.583 415.327 386.083 416.994 387.167C418.577 388.25 419.744 389.583 420.41 391.25C421.077 392.917 421.41 394.667 421.41 396.417C421.41 398.5 420.91 400.5 419.744 402.417C418.577 404.333 416.66 405.667 414.077 406.5L422.16 420.75H413.66L406.327 407.417H402.994V420.75H394.994ZM402.994 400.167H409.66C410.994 400.167 411.91 399.75 412.494 399C413.077 398.167 413.327 397.333 413.327 396.5C413.327 396 413.244 395.417 412.994 394.917C412.827 394.333 412.41 393.833 411.91 393.5C411.327 393.083 410.66 392.917 409.66 392.917H402.994V400.167Z" fill="white"/>
</svg>
