<?xml version="1.0" encoding="UTF-8" standalone="no"?>
<!DOCTYPE svg PUBLIC "-//W3C//DTD SVG 1.1//EN" "http://www.w3.org/Graphics/SVG/1.1/DTD/svg11.dtd">
<svg width="100%" height="100%" viewBox="0 0 438 517" version="1.1" xmlns="http://www.w3.org/2000/svg" xmlns:xlink="http://www.w3.org/1999/xlink" xml:space="preserve" xmlns:serif="http://www.serif.com/" style="fill-rule:evenodd;clip-rule:evenodd;stroke-linejoin:round;stroke-miterlimit:2;">
    <g transform="matrix(1,0,0,1,-4008.589433,-1661.574226)">
        <g transform="matrix(1,0,0,1,5,0)">
            <g id="z-corp_z_editable" transform="matrix(0.175167,0,0,0.31,4003.589433,1661.574226)">
                <rect x="0" y="0" width="2500" height="1666.667" style="fill:none;"/>
                <g transform="matrix(7.136061,0,0,4.032258,-4317.464581,-1396.796798)">
                    <path d="M672.069,693.072L672.069,650.272L816.898,461.517L719.052,455.872L719.052,482.917L680.629,413.072L888.629,413.072L888.629,455.872L743.909,642.573L850.096,650.272L850.096,621.173L888.629,693.072L672.069,693.072ZM727.362,642.573L872.082,455.872L833.658,461.517L688.829,650.272L727.362,642.573Z"/>
                </g>
                <g transform="matrix(5.708849,0,0,3.225806,-11195.863003,-9357.061284)">
                    <g transform="matrix(83.333333,0,0,83.333333,2333.384868,3333.022331)">
                        <path d="M0.424,0.012C0.372,0.012 0.325,0.003 0.281,-0.015C0.237,-0.034 0.199,-0.059 0.166,-0.092C0.133,-0.125 0.107,-0.163 0.089,-0.207C0.071,-0.251 0.062,-0.299 0.062,-0.35C0.062,-0.401 0.071,-0.449 0.089,-0.493C0.107,-0.537 0.133,-0.575 0.166,-0.608C0.199,-0.641 0.237,-0.666 0.281,-0.684C0.325,-0.703 0.372,-0.712 0.424,-0.712C0.475,-0.712 0.523,-0.703 0.566,-0.684C0.61,-0.666 0.649,-0.641 0.681,-0.608C0.714,-0.575 0.74,-0.537 0.758,-0.493C0.776,-0.449 0.786,-0.401 0.786,-0.35C0.786,-0.299 0.776,-0.251 0.758,-0.207C0.74,-0.163 0.714,-0.125 0.681,-0.092C0.649,-0.059 0.61,-0.034 0.566,-0.015C0.523,0.003 0.475,0.012 0.424,0.012ZM0.423,-0.069C0.463,-0.069 0.5,-0.076 0.534,-0.09C0.567,-0.105 0.596,-0.124 0.621,-0.15C0.646,-0.175 0.665,-0.205 0.678,-0.239C0.692,-0.273 0.698,-0.31 0.698,-0.35C0.698,-0.39 0.692,-0.427 0.678,-0.461C0.664,-0.495 0.645,-0.525 0.621,-0.55C0.596,-0.576 0.567,-0.595 0.534,-0.61C0.5,-0.624 0.463,-0.631 0.423,-0.631C0.37,-0.631 0.323,-0.618 0.282,-0.594C0.24,-0.569 0.208,-0.536 0.184,-0.493C0.16,-0.451 0.149,-0.403 0.149,-0.35C0.149,-0.297 0.16,-0.249 0.184,-0.207C0.208,-0.164 0.24,-0.131 0.282,-0.106C0.323,-0.082 0.37,-0.069 0.423,-0.069ZM0.273,-0.139L0.273,-0.561L0.454,-0.561C0.489,-0.561 0.517,-0.555 0.537,-0.542C0.556,-0.529 0.57,-0.513 0.578,-0.493C0.586,-0.473 0.59,-0.452 0.59,-0.431C0.59,-0.406 0.584,-0.382 0.57,-0.359C0.556,-0.336 0.533,-0.32 0.502,-0.31L0.599,-0.139L0.497,-0.139L0.409,-0.299L0.369,-0.299L0.369,-0.139L0.273,-0.139ZM0.369,-0.386L0.449,-0.386C0.465,-0.386 0.476,-0.391 0.483,-0.4C0.49,-0.41 0.493,-0.42 0.493,-0.43C0.493,-0.436 0.492,-0.443 0.489,-0.449C0.487,-0.456 0.482,-0.462 0.476,-0.466C0.469,-0.471 0.461,-0.473 0.449,-0.473L0.369,-0.473L0.369,-0.386Z" style="fill-rule:nonzero;"/>
                    </g>
                    <g transform="matrix(83.333333,0,0,83.333333,2403.968216,3333.022331)">
                    </g>
                </g>
            </g>
        </g>
    </g>
</svg>
