<svg width="62" height="63" viewBox="0 0 62 63" fill="none" xmlns="http://www.w3.org/2000/svg">
<path d="M33.6867 51.4762C32.7309 48.6938 30.1734 46.725 27.125 46.725C23.25 46.725 20.15 49.875 20.15 53.8125V57.75H10.3334C7.49169 57.75 5.16669 55.4137 5.16669 52.5V42.525H9.04169C12.9167 42.525 16.0167 39.375 16.0167 35.4375C16.0167 31.5 12.9167 28.35 9.04169 28.35H5.16669V18.375C5.16669 15.4875 7.49169 13.125 10.3334 13.125H20.6667V9.1875C20.6667 5.565 23.56 2.625 27.125 2.625C30.69 2.625 33.5834 5.565 33.5834 9.1875V13.125H43.9167C46.7584 13.125 49.0834 15.4613 49.0834 18.375V28.875H52.9584C56.5234 28.875 59.4167 31.815 59.4167 35.4375C59.4167 36.2775 59.2617 37.065 58.9775 37.7738C56.2909 35.5163 52.855 34.125 49.0834 34.125C40.5325 34.125 33.5834 41.1862 33.5834 49.875C33.5834 50.4 33.5834 50.9513 33.6867 51.4762ZM46.5 39.375V47.25H38.75V52.5H46.5V60.375H51.6667V52.5H59.4167V47.25H51.6667V39.375H46.5Z" fill="black"/>
</svg>
