<?xml version="1.0" encoding="UTF-8" standalone="no"?>
<!DOCTYPE svg PUBLIC "-//W3C//DTD SVG 1.1//EN" "http://www.w3.org/Graphics/SVG/1.1/DTD/svg11.dtd">
<svg width="100%" height="100%" viewBox="0 0 438 518" version="1.1" xmlns="http://www.w3.org/2000/svg" xmlns:xlink="http://www.w3.org/1999/xlink" xml:space="preserve" xmlns:serif="http://www.serif.com/" style="fill-rule:evenodd;clip-rule:evenodd;stroke-linejoin:round;stroke-miterlimit:2;">
    <g transform="matrix(1,0,0,1,0,-2697)">
        <g id="z-corp_z" transform="matrix(0.175167,0,0,0.31,0,2697.91)">
            <rect x="0" y="0" width="2500" height="1666.67" style="fill:none;"/>
            <clipPath id="_clip1">
                <rect x="0" y="0" width="2500" height="1666.67"/>
            </clipPath>
            <g clip-path="url(#_clip1)">
                <g transform="matrix(5.70885,0,0,3.22581,-6173.56,-1067.03)">
                    <g transform="matrix(1.25,0,0,1.25,113.829,501.134)">
                        <g transform="matrix(1.04115,0,0,1.04115,132.088,-264.249)">
                            <path d="M888.629,455.872L680.629,455.872L888.629,455.872Z" style="fill-rule:nonzero;"/>
                        </g>
                        <g transform="matrix(1.04115,0,0,1.04115,132.088,-307.049)">
                            <path d="M888.629,455.872L680.629,455.872L888.629,455.872Z" style="fill-rule:nonzero;"/>
                        </g>
                        <g transform="matrix(1.04115,0,0,1.04115,132.363,-314.748)">
                            <path d="M888.629,455.872L680.629,455.872L888.629,455.872Z" style="fill-rule:nonzero;"/>
                        </g>
                        <g transform="matrix(1.00275,0,0,1.00275,166.211,-385.016)">
                            <path d="M888.629,455.872L680.629,455.872L888.629,455.872Z" style="fill-rule:nonzero;"/>
                        </g>
                        <g transform="matrix(1,0,0,1,168.655,-482.689)">
                            <path d="M743.909,642.573L672.069,650.272L743.909,642.573Z" style="fill-rule:nonzero;"/>
                        </g>
                        <g id="z_right2" transform="matrix(0.500162,0,0,0.500162,719.886,-206.243)">
                            <path d="M674.578,732.016L597.537,747.409L674.578,732.016Z" style="fill:white;fill-rule:nonzero;"/>
                        </g>
                        <g id="z_right" transform="matrix(1,0,0,1,313.375,-482.689)">
                            <path d="M743.909,642.573L672.069,650.272L743.909,642.573Z" style="fill-rule:nonzero;"/>
                        </g>
                        <g id="z_left" transform="matrix(1,0,0,1,32.3862,-482.689)">
                            <path d="M888.629,455.872L816.898,461.517L888.629,455.872Z" style="fill-rule:nonzero;"/>
                        </g>
                        <g id="z_left2" transform="matrix(0.500162,0,0,0.500162,405.59,-206.243)">
                            <path d="M963.924,358.735L887.101,370.022L963.924,358.735Z" style="fill:white;fill-rule:nonzero;"/>
                        </g>
                        <g transform="matrix(1,0,0,1,168.655,-482.689)">
                            <path d="M888.629,455.872L816.898,461.517L888.629,455.872Z" style="fill-rule:nonzero;"/>
                        </g>
                        <g transform="matrix(1,0,0,1,160.096,-482.689)">
                            <path d="M680.629,413.072L680.629,693.072L680.629,413.072Z" style="fill-rule:nonzero;"/>
                        </g>
                        <g transform="matrix(1,0,0,1,168.655,-482.689)">
                            <path d="M680.629,413.072L680.629,693.072L680.629,413.072Z" style="fill-rule:nonzero;"/>
                        </g>
                        <g transform="matrix(1,0,0,1,368.096,-482.689)">
                            <path d="M680.629,413.072L680.629,693.072L680.629,413.072Z" style="fill-rule:nonzero;"/>
                        </g>
                        <g transform="matrix(1,0,0,1,376.655,-482.689)">
                            <path d="M680.629,413.072L680.629,693.072L680.629,413.072Z" style="fill-rule:nonzero;"/>
                        </g>
                        <g transform="matrix(1,0,0,1,168.655,-477.044)">
                            <path d="M888.629,455.872L680.629,455.872L888.629,455.872Z" style="fill-rule:nonzero;"/>
                        </g>
                        <g transform="matrix(1,0,0,1,168.655,-482.689)">
                            <path d="M888.629,455.872L680.629,455.872L888.629,455.872Z" style="fill-rule:nonzero;"/>
                        </g>
                        <g transform="matrix(1,0,0,1,168.655,-525.489)">
                            <path d="M888.629,455.872L680.629,455.872L888.629,455.872Z" style="fill-rule:nonzero;"/>
                        </g>
                        <g transform="matrix(1,0,0,1,168.655,-482.689)">
                            <path d="M672.069,693.072L672.069,650.272L816.898,461.517L719.052,455.872L680.629,461.517L680.629,413.072L888.629,413.072L888.629,455.872L743.909,642.573L850.096,650.272L888.629,642.573L888.629,693.072L672.069,693.072Z" style="fill-rule:nonzero;"/>
                        </g>
                        <g transform="matrix(0.500162,0,0,0.500162,558.62,-206.243)">
                            <path d="M674.578,732.016L597.537,747.409L887.101,370.022L963.924,358.735L674.578,732.016Z" style="fill:white;fill-rule:nonzero;"/>
                        </g>
                    </g>
                    <g transform="matrix(1,0,0,1,-879.741,-2569.91)">
                        <g transform="matrix(83.3333,0,0,83.3333,2333.38,3333.02)">
                            <path d="M0.424,0.012C0.372,0.012 0.325,0.003 0.281,-0.016C0.237,-0.034 0.199,-0.059 0.166,-0.092C0.133,-0.125 0.107,-0.163 0.089,-0.207C0.071,-0.251 0.062,-0.299 0.062,-0.35C0.062,-0.401 0.071,-0.449 0.089,-0.493C0.107,-0.537 0.133,-0.575 0.166,-0.608C0.199,-0.641 0.237,-0.666 0.281,-0.685C0.325,-0.703 0.372,-0.712 0.424,-0.712C0.475,-0.712 0.523,-0.703 0.566,-0.685C0.61,-0.666 0.649,-0.641 0.681,-0.608C0.714,-0.575 0.74,-0.537 0.758,-0.493C0.776,-0.449 0.786,-0.401 0.786,-0.35C0.786,-0.299 0.776,-0.251 0.758,-0.207C0.74,-0.163 0.714,-0.125 0.681,-0.092C0.649,-0.059 0.61,-0.034 0.566,-0.016C0.523,0.003 0.475,0.012 0.424,0.012ZM0.423,-0.069C0.463,-0.069 0.5,-0.076 0.534,-0.091C0.567,-0.105 0.596,-0.124 0.621,-0.15C0.646,-0.175 0.665,-0.205 0.678,-0.239C0.692,-0.273 0.698,-0.31 0.698,-0.35C0.698,-0.39 0.692,-0.427 0.678,-0.461C0.664,-0.495 0.645,-0.525 0.621,-0.55C0.596,-0.576 0.567,-0.595 0.534,-0.61C0.5,-0.624 0.463,-0.631 0.423,-0.631C0.37,-0.631 0.323,-0.618 0.282,-0.594C0.24,-0.569 0.208,-0.536 0.184,-0.493C0.16,-0.451 0.149,-0.403 0.149,-0.35C0.149,-0.297 0.16,-0.249 0.184,-0.207C0.208,-0.164 0.24,-0.131 0.282,-0.106C0.323,-0.082 0.37,-0.069 0.423,-0.069ZM0.273,-0.139L0.273,-0.561L0.454,-0.561C0.489,-0.561 0.517,-0.555 0.537,-0.542C0.556,-0.529 0.57,-0.513 0.578,-0.493C0.586,-0.473 0.59,-0.452 0.59,-0.431C0.59,-0.406 0.584,-0.382 0.57,-0.359C0.556,-0.336 0.533,-0.32 0.502,-0.31L0.599,-0.139L0.497,-0.139L0.409,-0.299L0.369,-0.299L0.369,-0.139L0.273,-0.139ZM0.369,-0.386L0.449,-0.386C0.465,-0.386 0.476,-0.391 0.483,-0.4C0.49,-0.41 0.493,-0.42 0.493,-0.43C0.493,-0.436 0.492,-0.443 0.489,-0.449C0.487,-0.456 0.482,-0.462 0.476,-0.466C0.469,-0.471 0.461,-0.473 0.449,-0.473L0.369,-0.473L0.369,-0.386Z" style="fill-rule:nonzero;"/>
                        </g>
                        <g transform="matrix(83.3333,0,0,83.3333,2403.97,3333.02)">
                        </g>
                    </g>
                    <g transform="matrix(0.740526,0,0,1.02799,915.966,-2404.28)">
                        <rect x="349.31" y="2660.6" width="352.638" height="81.065" style="fill:white;fill-opacity:0;"/>
                    </g>
                    <g transform="matrix(0.740526,0,0,1.02799,915.966,-1970.95)">
                        <rect x="349.31" y="2660.6" width="352.638" height="81.065" style="fill:white;fill-opacity:0;"/>
                    </g>
                    <g transform="matrix(6.12323e-17,1,-1.02799,6.2946e-17,4254.17,64.8028)">
                        <rect x="349.31" y="2660.6" width="352.638" height="81.065" style="fill:white;fill-opacity:0;"/>
                    </g>
                    <g transform="matrix(6.12323e-17,-1,1.02799,6.2946e-17,-1653.66,1116.06)">
                        <rect x="349.31" y="2660.6" width="352.638" height="81.065" style="fill:white;fill-opacity:0;"/>
                    </g>
                </g>
            </g>
        </g>
    </g>
</svg>
