<?xml version="1.0" encoding="UTF-8" standalone="no"?>
<!DOCTYPE svg PUBLIC "-//W3C//DTD SVG 1.1//EN" "http://www.w3.org/Graphics/SVG/1.1/DTD/svg11.dtd">
<svg width="100%" height="100%" viewBox="0 0 2480 2709" version="1.1" xmlns="http://www.w3.org/2000/svg" xmlns:xlink="http://www.w3.org/1999/xlink" xml:space="preserve" xmlns:serif="http://www.serif.com/" style="fill-rule:evenodd;clip-rule:evenodd;stroke-linejoin:round;stroke-miterlimit:2;">
    <g transform="matrix(1,0,0,1,-13212,-1047)">
        <g id="handbook-z_poly-page2" transform="matrix(0.991667,0,0,1.625,13212.1,1047)">
            <rect x="0" y="0" width="2500" height="1666.67" style="fill:none;"/>
            <clipPath id="_clip1">
                <rect x="0" y="0" width="2500" height="1666.67"/>
            </clipPath>
            <g clip-path="url(#_clip1)">
                <g transform="matrix(1,0,0,1.29538,1.81899e-12,0)">
                    <g>
                        <g transform="matrix(-11.5295,0,0,-5.43157,10247.2,4776.8)">
                            <path d="M671.94,719.92L671.94,650.271L743.909,642.573L850.096,650.272L888.774,642.544L888.774,719.92L671.94,719.92Z" style="fill:rgb(102,179,255);fill-rule:nonzero;"/>
                        </g>
                        <g transform="matrix(-11.5295,0,0,-5.43157,10247.2,4776.8)">
                            <path d="M671.94,879.451L671.94,685.871L888.774,642.544L888.774,879.451L671.94,879.451Z" style="fill:rgb(74,158,255);fill-rule:nonzero;"/>
                        </g>
                        <g transform="matrix(-11.5295,0,0,-5.43157,10247.2,4776.8)">
                            <path d="M888.774,642.544L671.94,685.871L888.774,642.544Z" style="fill:rgb(58,142,239);fill-rule:nonzero;"/>
                        </g>
                        <g transform="matrix(-11.5295,0,0,-5.43157,10247.2,4659.13)">
                            <path d="M671.94,879.451L671.94,685.871L888.774,642.544L888.774,879.451L671.94,879.451Z" style="fill:rgb(58,142,239);fill-rule:nonzero;"/>
                        </g>
                    </g>
                </g>
            </g>
        </g>
    </g>
</svg>
