<?xml version="1.0" encoding="UTF-8" standalone="no"?>
<!DOCTYPE svg PUBLIC "-//W3C//DTD SVG 1.1//EN" "http://www.w3.org/Graphics/SVG/1.1/DTD/svg11.dtd">
<svg width="100%" height="100%" viewBox="0 0 2476 248" version="1.1" xmlns="http://www.w3.org/2000/svg" xmlns:xlink="http://www.w3.org/1999/xlink" xml:space="preserve" xmlns:serif="http://www.serif.com/" style="fill-rule:evenodd;clip-rule:evenodd;stroke-linejoin:round;stroke-miterlimit:2;">
    <g transform="matrix(1,0,0,1,-7910,-2652)">
        <g id="handbook-z_poly-tiny" transform="matrix(0.873439,0,0,0.346567,1000.97,2289.71)">
            <rect x="7910.15" y="1047" width="2834.58" height="712.944" style="fill:none;"/>
            <clipPath id="_clip1">
                <rect x="7910.15" y="1047" width="2834.58" height="712.944"/>
            </clipPath>
            <g clip-path="url(#_clip1)">
                <g transform="matrix(13.0902,0,0,32.9906,-887.349,-20152.1)">
                    <path d="M672.069,664.191L672.069,650.272L743.909,642.573L850.096,650.272L888.612,642.581L888.904,664.191L672.069,664.191Z" style="fill:rgb(102,179,255);fill-rule:nonzero;"/>
                </g>
                <g transform="matrix(6.52846,0,0,16.4534,4944.53,-9523.62)">
                    <path d="M672.344,685.79L850.096,650.272L888.449,642.459L888.904,685.79L672.344,685.79Z" style="fill:rgb(58,142,239);fill-rule:nonzero;"/>
                </g>
                <g transform="matrix(-13.0902,0,0,32.9906,19549.6,-20152.1)">
                    <path d="M888.629,642.573L780.624,664.154L888.629,642.573Z" style="fill:rgb(58,142,239);fill-rule:nonzero;"/>
                </g>
            </g>
        </g>
    </g>
</svg>
