<?xml version="1.0" encoding="UTF-8" standalone="no"?>
<!DOCTYPE svg PUBLIC "-//W3C//DTD SVG 1.1//EN" "http://www.w3.org/Graphics/SVG/1.1/DTD/svg11.dtd">
<svg width="100%" height="100%" viewBox="0 0 1968 517" version="1.1" xmlns="http://www.w3.org/2000/svg" xmlns:xlink="http://www.w3.org/1999/xlink" xml:space="preserve" xmlns:serif="http://www.serif.com/" style="fill-rule:evenodd;clip-rule:evenodd;stroke-linejoin:round;stroke-miterlimit:2;">
    <g transform="matrix(1,0,0,1,-2948.285567,-1047)">
        <g transform="matrix(1,0,0,1,5,0)">
            <g id="z-corp_symbolmark" transform="matrix(0.787167,0,0,0.31,2943.285567,1047)">
                <rect x="0" y="0" width="2500" height="1666.667" style="fill:none;"/>
                <clipPath id="_clip1">
                    <rect x="0" y="0" width="2500" height="1666.667"/>
                </clipPath>
                <g clip-path="url(#_clip1)">
                    <g transform="matrix(1.270379,0,0,3.225806,-430.595064,-1067.030852)">
                        <g transform="matrix(2.417127,0,0,2.417127,274.16571,-6361.323113)">
                            <g transform="matrix(200,0,0,200,177.354973,2945.49467)">
                                <rect x="0.053" y="-0.342" width="0.395" height="0.109" style="fill-rule:nonzero;"/>
                            </g>
                            <g transform="matrix(200,0,0,200,277.555046,2945.49467)">
                                <path d="M0.35,0.011C0.295,0.011 0.249,0 0.212,-0.021C0.174,-0.041 0.144,-0.069 0.121,-0.104C0.098,-0.139 0.082,-0.178 0.071,-0.22C0.061,-0.263 0.056,-0.306 0.056,-0.35C0.056,-0.391 0.061,-0.433 0.072,-0.476C0.082,-0.518 0.099,-0.558 0.122,-0.593C0.145,-0.629 0.176,-0.658 0.213,-0.679C0.25,-0.701 0.296,-0.712 0.35,-0.712C0.394,-0.712 0.432,-0.705 0.465,-0.69C0.497,-0.675 0.525,-0.656 0.546,-0.632C0.568,-0.609 0.584,-0.584 0.595,-0.558L0.48,-0.505C0.468,-0.522 0.456,-0.537 0.445,-0.549C0.432,-0.562 0.419,-0.571 0.404,-0.578C0.388,-0.585 0.37,-0.588 0.35,-0.588C0.32,-0.588 0.294,-0.581 0.274,-0.567C0.254,-0.552 0.237,-0.533 0.225,-0.509C0.213,-0.486 0.204,-0.46 0.199,-0.432C0.193,-0.404 0.19,-0.377 0.19,-0.35C0.19,-0.322 0.193,-0.294 0.2,-0.266C0.206,-0.238 0.215,-0.212 0.228,-0.189C0.241,-0.166 0.257,-0.148 0.278,-0.134C0.298,-0.12 0.322,-0.113 0.35,-0.113C0.379,-0.113 0.405,-0.122 0.425,-0.138C0.446,-0.155 0.464,-0.176 0.48,-0.203L0.598,-0.158C0.583,-0.126 0.565,-0.097 0.542,-0.072C0.519,-0.046 0.492,-0.026 0.46,-0.011C0.429,0.003 0.392,0.011 0.35,0.011Z" style="fill-rule:nonzero;"/>
                            </g>
                            <g transform="matrix(200,0,0,200,401.675114,2945.49467)">
                                <path d="M0.361,0.012C0.306,0.012 0.258,0.001 0.219,-0.02C0.18,-0.041 0.149,-0.069 0.125,-0.104C0.101,-0.139 0.084,-0.178 0.072,-0.221C0.061,-0.264 0.056,-0.307 0.056,-0.35C0.056,-0.393 0.061,-0.436 0.072,-0.479C0.084,-0.522 0.101,-0.561 0.125,-0.596C0.149,-0.631 0.18,-0.659 0.219,-0.68C0.258,-0.701 0.306,-0.712 0.361,-0.712C0.418,-0.712 0.465,-0.701 0.504,-0.68C0.543,-0.659 0.574,-0.631 0.598,-0.596C0.622,-0.561 0.639,-0.522 0.65,-0.479C0.661,-0.436 0.666,-0.393 0.666,-0.35C0.666,-0.307 0.661,-0.264 0.65,-0.221C0.639,-0.178 0.622,-0.139 0.598,-0.104C0.574,-0.069 0.543,-0.041 0.504,-0.02C0.465,0.001 0.418,0.012 0.361,0.012ZM0.361,-0.113C0.393,-0.113 0.419,-0.12 0.441,-0.135C0.463,-0.149 0.48,-0.168 0.494,-0.192C0.507,-0.216 0.517,-0.241 0.523,-0.269C0.529,-0.297 0.532,-0.324 0.532,-0.35C0.532,-0.378 0.529,-0.406 0.523,-0.434C0.517,-0.462 0.508,-0.488 0.495,-0.511C0.482,-0.535 0.464,-0.553 0.442,-0.567C0.42,-0.581 0.393,-0.588 0.361,-0.588C0.329,-0.588 0.302,-0.581 0.28,-0.566C0.259,-0.552 0.241,-0.532 0.228,-0.509C0.215,-0.485 0.205,-0.459 0.199,-0.431C0.193,-0.403 0.19,-0.376 0.19,-0.35C0.19,-0.322 0.193,-0.294 0.199,-0.266C0.205,-0.238 0.215,-0.213 0.228,-0.19C0.242,-0.166 0.259,-0.148 0.281,-0.134C0.303,-0.12 0.33,-0.113 0.361,-0.113Z" style="fill-rule:nonzero;"/>
                            </g>
                            <g transform="matrix(200,0,0,200,545.415178,2945.49467)">
                                <path d="M0.083,-0L0.083,-0.7L0.402,-0.7C0.46,-0.7 0.506,-0.69 0.54,-0.67C0.574,-0.649 0.598,-0.623 0.612,-0.59C0.627,-0.557 0.634,-0.521 0.634,-0.484C0.634,-0.457 0.629,-0.43 0.619,-0.403C0.609,-0.376 0.593,-0.352 0.573,-0.33C0.552,-0.309 0.526,-0.293 0.494,-0.283L0.632,-0L0.487,-0L0.354,-0.265L0.213,-0.265L0.213,-0L0.083,-0ZM0.213,-0.387L0.404,-0.387C0.428,-0.387 0.447,-0.392 0.461,-0.401C0.475,-0.41 0.485,-0.422 0.491,-0.436C0.497,-0.451 0.5,-0.466 0.5,-0.483C0.5,-0.498 0.498,-0.513 0.492,-0.527C0.486,-0.542 0.477,-0.554 0.462,-0.564C0.448,-0.573 0.429,-0.578 0.404,-0.578L0.213,-0.578L0.213,-0.387Z" style="fill-rule:nonzero;"/>
                            </g>
                            <g transform="matrix(200,0,0,200,683.334978,2945.49467)">
                                <path d="M0.083,-0L0.083,-0.7L0.379,-0.7C0.437,-0.7 0.484,-0.689 0.519,-0.668C0.554,-0.646 0.579,-0.619 0.594,-0.585C0.608,-0.552 0.616,-0.517 0.616,-0.48C0.616,-0.455 0.612,-0.429 0.603,-0.404C0.594,-0.378 0.58,-0.354 0.561,-0.333C0.542,-0.311 0.518,-0.294 0.488,-0.281C0.458,-0.268 0.421,-0.261 0.379,-0.261L0.213,-0.261L0.213,-0L0.083,-0ZM0.213,-0.383L0.385,-0.383C0.409,-0.383 0.428,-0.388 0.442,-0.398C0.457,-0.407 0.467,-0.42 0.473,-0.435C0.48,-0.45 0.483,-0.465 0.483,-0.48C0.483,-0.494 0.48,-0.509 0.474,-0.524C0.469,-0.539 0.459,-0.552 0.444,-0.563C0.43,-0.573 0.41,-0.578 0.385,-0.578L0.213,-0.578L0.213,-0.383Z" style="fill-rule:nonzero;"/>
                            </g>
                            <g transform="matrix(200,0,0,200,811.014909,2945.49467)">
                            </g>
                        </g>
                        <g transform="matrix(1.25,0,0,1.25,-417.325798,-102.227443)">
                            <path d="M672.069,693.072L672.069,650.272L816.898,461.517L719.052,455.872L719.052,482.917L680.629,413.072L888.629,413.072L888.629,455.872L743.909,642.573L850.096,650.272L850.096,621.173L888.629,693.072L672.069,693.072ZM727.362,642.573L872.082,455.872L833.658,461.517L688.829,650.272L727.362,642.573Z"/>
                        </g>
                        <g transform="matrix(1,0,0,1,-162.671824,-2570.409434)">
                            <g transform="matrix(125,0,0,125,2333.384868,3333.022331)">
                                <path d="M0.424,0.012C0.372,0.012 0.325,0.003 0.281,-0.015C0.237,-0.034 0.199,-0.059 0.166,-0.092C0.133,-0.125 0.107,-0.163 0.089,-0.207C0.071,-0.251 0.062,-0.299 0.062,-0.35C0.062,-0.401 0.071,-0.449 0.089,-0.493C0.107,-0.537 0.133,-0.575 0.166,-0.608C0.199,-0.641 0.237,-0.666 0.281,-0.684C0.325,-0.703 0.372,-0.712 0.424,-0.712C0.475,-0.712 0.523,-0.703 0.566,-0.684C0.61,-0.666 0.649,-0.641 0.681,-0.608C0.714,-0.575 0.74,-0.537 0.758,-0.493C0.776,-0.449 0.786,-0.401 0.786,-0.35C0.786,-0.299 0.776,-0.251 0.758,-0.207C0.74,-0.163 0.714,-0.125 0.681,-0.092C0.649,-0.059 0.61,-0.034 0.566,-0.015C0.523,0.003 0.475,0.012 0.424,0.012ZM0.423,-0.069C0.463,-0.069 0.5,-0.076 0.534,-0.09C0.567,-0.105 0.596,-0.124 0.621,-0.15C0.646,-0.175 0.665,-0.205 0.678,-0.239C0.692,-0.273 0.698,-0.31 0.698,-0.35C0.698,-0.39 0.692,-0.427 0.678,-0.461C0.664,-0.495 0.645,-0.525 0.621,-0.55C0.596,-0.576 0.567,-0.595 0.534,-0.61C0.5,-0.624 0.463,-0.631 0.423,-0.631C0.37,-0.631 0.323,-0.618 0.282,-0.594C0.24,-0.569 0.208,-0.536 0.184,-0.493C0.16,-0.451 0.149,-0.403 0.149,-0.35C0.149,-0.297 0.16,-0.249 0.184,-0.207C0.208,-0.164 0.24,-0.131 0.282,-0.106C0.323,-0.082 0.37,-0.069 0.423,-0.069ZM0.273,-0.139L0.273,-0.561L0.454,-0.561C0.489,-0.561 0.517,-0.555 0.537,-0.542C0.556,-0.529 0.57,-0.513 0.578,-0.493C0.586,-0.473 0.59,-0.452 0.59,-0.431C0.59,-0.406 0.584,-0.382 0.57,-0.359C0.556,-0.336 0.533,-0.32 0.502,-0.31L0.599,-0.139L0.497,-0.139L0.409,-0.299L0.369,-0.299L0.369,-0.139L0.273,-0.139ZM0.369,-0.386L0.449,-0.386C0.465,-0.386 0.476,-0.391 0.483,-0.4C0.49,-0.41 0.493,-0.42 0.493,-0.43C0.493,-0.436 0.492,-0.443 0.489,-0.449C0.487,-0.456 0.482,-0.462 0.476,-0.466C0.469,-0.471 0.461,-0.473 0.449,-0.473L0.369,-0.473L0.369,-0.386Z" style="fill-rule:nonzero;"/>
                            </g>
                            <g transform="matrix(125,0,0,125,2439.259891,3333.022331)">
                            </g>
                        </g>
                        <g transform="matrix(1,0,0,1.027986,797.344066,-2404.281945)">
                            <rect x="349.31" y="2660.602" width="352.638" height="81.065" style="fill:white;fill-opacity:0;"/>
                        </g>
                        <g transform="matrix(1,0,0,1.027986,797.344066,-1970.948612)">
                            <rect x="349.31" y="2660.602" width="352.638" height="81.065" style="fill:white;fill-opacity:0;"/>
                        </g>
                        <g transform="matrix(0,1,-1.027986,0,5042.058082,64.80281)">
                            <rect x="349.31" y="2660.602" width="352.638" height="81.065" style="fill:white;fill-opacity:0;"/>
                        </g>
                        <g transform="matrix(0,-1,1.027986,0,-2396.111428,1116.061332)">
                            <rect x="349.31" y="2660.602" width="352.638" height="81.065" style="fill:white;fill-opacity:0;"/>
                        </g>
                    </g>
                </g>
            </g>
        </g>
    </g>
</svg>
